<!--?xml version="1.0" standalone="no"?-->
              <svg id="sw-js-blob-svg" viewBox="0 0 100 100" xmlns="http://www.w3.org/2000/svg" version="1.1">
                    <defs> 
                        <linearGradient id="sw-gradient" x1="0" x2="1" y1="1" y2="0">
                            <stop id="stop1" stop-color="rgba(248, 117, 55, 1)" offset="0%"></stop>
                            <stop id="stop2" stop-color="rgba(251, 168, 31, 1)" offset="100%"></stop>
                        </linearGradient>
                    </defs>
                <path fill="url(#sw-gradient)" d="M15.7,-17.4C19.5,-15.6,21.2,-9.8,19.9,-5.2C18.7,-0.6,14.7,2.8,12.7,8.4C10.7,14.1,10.8,22,8.4,22.6C6.1,23.2,1.2,16.5,-2.3,12.5C-5.8,8.5,-8,7.2,-11.3,4.9C-14.5,2.6,-18.9,-0.8,-20.9,-6.2C-23,-11.7,-22.8,-19.3,-18.9,-21.1C-15.1,-22.9,-7.5,-18.9,-0.8,-18C6,-17.1,11.9,-19.2,15.7,-17.4Z" width="100%" height="100%" transform="translate(50 50)" stroke-width="0" style="transition: 0.3s;"></path>
              </svg>